name D:\school\WTK\thesis\model\3dpredictsim\Results\Final\Fal_s1_bCst_ig21.mot
datacolumns 126
datarows 4
range 0.55540866 0.58873318
endheader
time	pelvis_tilt	pelvis_list	pelvis_rotation	pelvis_tx	pelvis_ty	pelvis_tz	hip_flexion_l	hip_adduction_l	hip_rotation_l	hip_flexion_r	hip_adduction_r	hip_rotation_r	knee_angle_l	knee_angle_r	ankle_angle_l	ankle_angle_r	subtalar_angle_l	subtalar_angle_r	mtp_angle_l	mtp_angle_r	lumbar_extension	lumbar_bending	lumbar_rotation	arm_flex_l	arm_add_l	arm_rot_l	arm_flex_r	arm_add_r	arm_rot_r	elbow_flex_l	elbow_flex_r	pro_sup_l	pro_sup_r	glut_med1_l/activation	glut_med2_l/activation	glut_med3_l/activation	glut_min1_l/activation	glut_min2_l/activation	glut_min3_l/activation	semimem_l/activation	semiten_l/activation	bifemlh_l/activation	bifemsh_l/activation	sar_l/activation	add_long_l/activation	add_brev_l/activation	add_mag1_l/activation	add_mag2_l/activation	add_mag3_l/activation	tfl_l/activation	pect_l/activation	grac_l/activation	glut_max1_l/activation	glut_max2_l/activation	glut_max3_l/activation	iliacus_l/activation	psoas_l/activation	quad_fem_l/activation	gem_l/activation	peri_l/activation	rect_fem_l/activation	vas_med_l/activation	vas_int_l/activation	vas_lat_l/activation	med_gas_l/activation	lat_gas_l/activation	soleus_l/activation	tib_post_l/activation	flex_dig_l/activation	flex_hal_l/activation	tib_ant_l/activation	per_brev_l/activation	per_long_l/activation	per_tert_l/activation	ext_dig_l/activation	ext_hal_l/activation	ercspn_l/activation	intobl_l/activation	extobl_l/activation	glut_med1_r/activation	glut_med2_r/activation	glut_med3_r/activation	glut_min1_r/activation	glut_min2_r/activation	glut_min3_r/activation	semimem_r/activation	semiten_r/activation	bifemlh_r/activation	bifemsh_r/activation	sar_r/activation	add_long_r/activation	add_brev_r/activation	add_mag1_r/activation	add_mag2_r/activation	add_mag3_r/activation	tfl_r/activation	pect_r/activation	grac_r/activation	glut_max1_r/activation	glut_max2_r/activation	glut_max3_r/activation	iliacus_r/activation	psoas_r/activation	quad_fem_r/activation	gem_r/activation	peri_r/activation	rect_fem_r/activation	vas_med_r/activation	vas_int_r/activation	vas_lat_r/activation	med_gas_r/activation	lat_gas_r/activation	soleus_r/activation	tib_post_r/activation	flex_dig_r/activation	flex_hal_r/activation	tib_ant_r/activation	per_brev_r/activation	per_long_r/activation	per_tert_r/activation	ext_dig_r/activation	ext_hal_r/activation	ercspn_r/activation	intobl_r/activation	extobl_r/activation	
          0.55540866	         -2.92942592	          2.02412320	         -5.02759333	          0.69426082	          0.91992049	          0.00166137	         29.48736441	          3.47679118	         -1.77346102	        -17.58152433	         -1.27991415	          6.34547750	        -13.12700317	         -6.57212727	          6.56408803	         -0.16703294	         -4.04496808	         10.46913036	         -0.11342216	         21.84525420	         -2.21979092	         -0.37246080	          1.81819866	         -5.83607704	        -13.49019044	          4.88585796	          4.61803750	        -13.45930748	         15.27353825	         17.96511270	         36.02762763	         86.51662706	         86.51662706	          0.05925659	          0.05925653	          0.05000021	          0.05925687	          0.05925682	          0.05001259	          0.05925761	          0.05000176	          0.21757087	          0.05000013	          0.05000052	          0.13800054	          0.31845025	          0.14828644	          0.16177355	          0.11903685	          0.05000017	          0.08328822	          0.06368354	          0.05000070	          0.14111023	          0.16273083	          0.05555899	          0.05000061	          0.18621156	          0.26300674	          0.13475462	          0.05863892	          0.15562700	          0.15160995	          0.13606805	          0.05068992	          0.05143070	          0.05479686	          0.05000003	          0.05000064	          0.05000026	          0.60562620	          0.28049968	          0.16793870	          0.32814560	          0.52656460	          0.27621775	          0.05925679	          0.10240913	          0.10086229	          0.27250222	          0.09864264	          0.07023328	          0.29855531	          0.19457047	          0.10643711	          0.05000114	          0.05000033	          0.05000022	          0.06010164	          0.09864713	          0.10905403	          0.09699747	          0.05000505	          0.05000541	          0.05000116	          0.30140628	          0.10766994	          0.05000640	          0.05000335	          0.05000207	          0.05000179	          0.35152283	          0.60001329	          0.05000056	          0.05000078	          0.05000165	          0.19871317	          0.06166382	          0.05246458	          0.05055816	          0.27571413	          0.37411472	          0.27449116	          0.28051724	          0.27757088	          0.36654749	          0.05000004	          0.05925656	          0.13174873	          0.05000024	          0.05000006	          0.05000023	          0.05000011	          0.05000034	          0.05000102	
          0.56651683	         -2.92413635	          2.12753495	         -5.29995323	          0.71099872	          0.91885391	          0.00144549	         28.83900891	          3.82457376	         -1.53724961	        -17.38931972	         -1.57876756	          6.14045956	        -13.26526846	         -8.59973065	          5.95701183	         -0.99324043	         -4.43557553	         11.37825802	         -0.07686222	         22.73929942	         -2.02898702	         -0.60246376	          1.88095977	         -6.67460393	        -13.49379471	          4.64176405	          4.31762736	        -13.46899595	         15.58269898	         17.60856806	         37.17928347	         86.51662706	         86.51662706	          0.05000002	          0.05000009	          0.10742108	          0.05000010	          0.05000011	          0.05000016	          0.05000080	          0.05000141	          0.18358309	          0.05000073	          0.05000373	          0.11644309	          0.26870433	          0.32682152	          0.21858580	          0.14136790	          0.05000120	          0.07028195	          0.12782929	          0.07752475	          0.12074336	          0.13731004	          0.05000017	          0.05000209	          0.39298351	          0.22192117	          0.11370398	          0.05928451	          0.16934686	          0.17473303	          0.14733299	          0.05000026	          0.05925725	          0.05000005	          0.06569029	          0.05000568	          0.05925773	          0.51101828	          0.33651947	          0.20904143	          0.27688487	          0.44903518	          0.23306845	          0.05000002	          0.08641129	          0.08510608	          0.22993335	          0.08323321	          0.05926187	          0.25191668	          0.16417572	          0.08981010	          0.05000421	          0.05000095	          0.05000157	          0.05071293	          0.08323724	          0.19157144	          0.14457154	          0.07023308	          0.05926159	          0.05925818	          0.25432227	          0.09085420	          0.05000324	          0.05001668	          0.05001481	          0.05071488	          0.29660973	          0.54941404	          0.05011956	          0.05925948	          0.05925598	          0.16767130	          0.13552573	          0.15342170	          0.14144380	          0.23264342	          0.31567237	          0.23161150	          0.23669646	          0.23421063	          0.30928772	          0.05000005	          0.05000020	          0.13232004	          0.05000015	          0.05000004	          0.05000023	          0.06180296	          0.05950784	          0.05925649	
          0.57762501	         -2.91498397	          2.23379809	         -5.54431548	          0.72797152	          0.91779619	          0.00124226	         28.05510123	          4.09438088	         -1.28092589	        -17.11225570	         -1.87160821	          5.92309538	        -13.69378582	        -10.76598024	          5.50224515	         -1.99002498	         -4.84007063	         12.22547926	         -0.16540235	         23.44805285	         -1.82228961	         -0.84150024	          1.93369762	         -7.52094841	        -13.50383528	          4.46222116	          3.95395417	        -13.47793241	         15.83278060	         17.27553413	         38.30072972	         86.51662706	         86.51662706	          0.24910519	          0.25456162	          0.30432871	          0.36708834	          0.23684902	          0.19084027	          0.06928378	          0.05000143	          0.15862297	          0.05124965	          0.05925516	          0.09825298	          0.22672873	          0.27576720	          0.18443959	          0.11930352	          0.05000089	          0.05930443	          0.10786078	          0.16716557	          0.15077747	          0.11586031	          0.05916790	          0.05000155	          0.33159366	          0.18725395	          0.23203521	          0.05002343	          0.14289245	          0.14743723	          0.12431745	          0.05000069	          0.05000088	          0.05000770	          0.05542855	          0.05000053	          0.05000118	          0.60709509	          0.36387433	          0.18506679	          0.33090450	          0.55067506	          0.27256407	          0.06535748	          0.10515367	          0.07181123	          0.34322764	          0.07023097	          0.05000435	          0.31559585	          0.13852914	          0.07578050	          0.05000344	          0.05000044	          0.05000034	          0.05000052	          0.07023487	          0.16164551	          0.12198845	          0.05926194	          0.05000551	          0.05000159	          0.22651428	          0.07709760	          0.05001589	          0.05000355	          0.05000188	          0.05000120	          0.25027494	          0.50935373	          0.05000053	          0.05000313	          0.05000063	          0.14147856	          0.11435472	          0.12945509	          0.11934829	          0.19630100	          0.26635958	          0.19543028	          0.19972096	          0.19762360	          0.26097247	          0.05000005	          0.10417173	          0.15893438	          0.05000022	          0.05000018	          0.05000033	          0.06252290	          0.05021182	          0.05000008	
          0.58873318	         -2.90407456	          2.33250500	         -5.75580652	          0.74496416	          0.91678265	          0.00101478	         27.21340335	          4.34669043	         -1.02741714	        -16.72699084	         -2.14949528	          5.71111705	        -14.07495927	        -13.08747846	          5.11475038	         -3.12781726	         -5.25471764	         13.01497091	         -0.17648963	         23.86122390	         -1.62141968	         -1.07802519	          1.97847436	         -8.32676468	        -13.51373275	          4.34824401	          3.56706218	        -13.49296302	         16.05190710	         16.93839878	         39.36151033	         86.51662706	         86.51662706	          0.34384805	          0.36078673	          0.40009256	          0.30974407	          0.19985088	          0.23899852	          0.06942643	          0.10260970	          0.13384387	          0.06907117	          0.05000073	          0.08290446	          0.19131047	          0.23268993	          0.21394813	          0.16929781	          0.05000040	          0.05004410	          0.12049368	          0.24737896	          0.19885338	          0.16792004	          0.05000016	          0.05000017	          0.27979384	          0.15800219	          0.21139594	          0.05000007	          0.17267734	          0.18822720	          0.14644865	          0.05000003	          0.05000007	          0.05000001	          0.05000001	          0.05000017	          0.05000014	          0.66294601	          0.30703206	          0.15615677	          0.60283904	          0.57329664	          0.36645719	          0.08882764	          0.08872710	          0.06059324	          0.29328791	          0.05925988	          0.05000011	          0.26629745	          0.11688891	          0.06394252	          0.05000352	          0.05000033	          0.05000029	          0.05000020	          0.05926339	          0.17393263	          0.14866387	          0.05000529	          0.05000855	          0.06443715	          0.19113085	          0.06505489	          0.05000095	          0.05000393	          0.05000257	          0.05000188	          0.21117827	          0.45946893	          0.05000026	          0.05000083	          0.05000023	          0.11937751	          0.11689910	          0.11689908	          0.11689895	          0.16563581	          0.22475020	          0.16490112	          0.16852159	          0.16675200	          0.22020478	          0.10586012	          0.15339950	          0.14759392	          0.05000237	          0.14182586	          0.05000211	          0.09377115	          0.05000002	          0.05000007	
